<mxfile host="65bd71144e">
    <diagram id="5gMrNbhCcvMap2-kCo8e" name="Page-1">
        <mxGraphModel dx="1645" dy="512" grid="1" gridSize="5" guides="1" tooltips="1" connect="1" arrows="1" fold="1" page="1" pageScale="1" pageWidth="827" pageHeight="1169" math="0" shadow="0">
            <root>
                <mxCell id="0"/>
                <mxCell id="1" parent="0"/>
                <mxCell id="384" style="edgeStyle=none;html=1;fontSize=12;" edge="1" parent="1" source="66" target="174">
                    <mxGeometry relative="1" as="geometry"/>
                </mxCell>
                <mxCell id="66" value="Start" style="strokeWidth=2;html=1;shape=mxgraph.flowchart.start_1;whiteSpace=wrap;" parent="1" vertex="1">
                    <mxGeometry x="-7.5" y="80" width="100" height="60" as="geometry"/>
                </mxCell>
                <mxCell id="67" value="Stop" style="strokeWidth=2;html=1;shape=mxgraph.flowchart.start_1;whiteSpace=wrap;" parent="1" vertex="1">
                    <mxGeometry x="150" y="182.5" width="100" height="60" as="geometry"/>
                </mxCell>
                <mxCell id="72" value="get licensePlateNumber" style="text;html=1;align=center;verticalAlign=middle;resizable=0;points=[];autosize=1;strokeColor=none;fillColor=none;" parent="1" vertex="1">
                    <mxGeometry x="7.5" y="35" width="150" height="30" as="geometry"/>
                </mxCell>
                <mxCell id="385" style="edgeStyle=none;html=1;fontSize=12;" edge="1" parent="1" source="174" target="67">
                    <mxGeometry relative="1" as="geometry"/>
                </mxCell>
                <mxCell id="174" value="&lt;font style=&quot;font-size: 12px;&quot;&gt;return&lt;br style=&quot;&quot;&gt;licensePlateNumber&lt;/font&gt;" style="shape=parallelogram;html=1;strokeWidth=2;perimeter=parallelogramPerimeter;whiteSpace=wrap;rounded=1;arcSize=12;size=0.23;fontSize=8;" parent="1" vertex="1">
                    <mxGeometry x="-37.5" y="180" width="160" height="65" as="geometry"/>
                </mxCell>
                <mxCell id="386" style="edgeStyle=none;html=1;fontSize=12;" edge="1" parent="1" source="177" target="183">
                    <mxGeometry relative="1" as="geometry"/>
                </mxCell>
                <mxCell id="177" value="Start" style="strokeWidth=2;html=1;shape=mxgraph.flowchart.start_1;whiteSpace=wrap;" parent="1" vertex="1">
                    <mxGeometry x="-20.000000000000014" y="320" width="100" height="60" as="geometry"/>
                </mxCell>
                <mxCell id="178" value="Stop" style="strokeWidth=2;html=1;shape=mxgraph.flowchart.start_1;whiteSpace=wrap;" parent="1" vertex="1">
                    <mxGeometry x="109.99" y="410" width="100" height="60" as="geometry"/>
                </mxCell>
                <mxCell id="181" value="get colour" style="text;html=1;align=center;verticalAlign=middle;resizable=0;points=[];autosize=1;strokeColor=none;fillColor=none;" parent="1" vertex="1">
                    <mxGeometry x="-7.500000000000014" y="285" width="75" height="30" as="geometry"/>
                </mxCell>
                <mxCell id="387" style="edgeStyle=none;html=1;fontSize=12;" edge="1" parent="1" source="183" target="178">
                    <mxGeometry relative="1" as="geometry"/>
                </mxCell>
                <mxCell id="183" value="return colour" style="shape=parallelogram;html=1;strokeWidth=2;perimeter=parallelogramPerimeter;whiteSpace=wrap;rounded=1;arcSize=12;size=0.23;fontSize=12;" parent="1" vertex="1">
                    <mxGeometry x="-20.000000000000014" y="410" width="100" height="60" as="geometry"/>
                </mxCell>
                <mxCell id="392" style="edgeStyle=none;html=1;entryX=0.5;entryY=0;entryDx=0;entryDy=0;fontSize=12;" edge="1" parent="1" source="185" target="191">
                    <mxGeometry relative="1" as="geometry"/>
                </mxCell>
                <mxCell id="185" value="Start" style="strokeWidth=2;html=1;shape=mxgraph.flowchart.start_1;whiteSpace=wrap;" parent="1" vertex="1">
                    <mxGeometry x="600" y="80" width="100" height="60" as="geometry"/>
                </mxCell>
                <mxCell id="186" value="Stop" style="strokeWidth=2;html=1;shape=mxgraph.flowchart.start_1;whiteSpace=wrap;" parent="1" vertex="1">
                    <mxGeometry x="735" y="180" width="100" height="60" as="geometry"/>
                </mxCell>
                <mxCell id="189" value="get doors" style="text;html=1;align=center;verticalAlign=middle;resizable=0;points=[];autosize=1;strokeColor=none;fillColor=none;" parent="1" vertex="1">
                    <mxGeometry x="600" y="50" width="70" height="30" as="geometry"/>
                </mxCell>
                <mxCell id="393" style="edgeStyle=none;html=1;entryX=0;entryY=0.5;entryDx=0;entryDy=0;entryPerimeter=0;fontSize=12;" edge="1" parent="1" source="191" target="186">
                    <mxGeometry relative="1" as="geometry"/>
                </mxCell>
                <mxCell id="191" value="return doors" style="shape=parallelogram;html=1;strokeWidth=2;perimeter=parallelogramPerimeter;whiteSpace=wrap;rounded=1;arcSize=12;size=0.23;fontSize=12;" parent="1" vertex="1">
                    <mxGeometry x="600" y="180" width="100" height="60" as="geometry"/>
                </mxCell>
                <mxCell id="390" style="edgeStyle=none;html=1;entryX=0.5;entryY=0;entryDx=0;entryDy=0;fontSize=12;" edge="1" parent="1" source="193" target="199">
                    <mxGeometry relative="1" as="geometry"/>
                </mxCell>
                <mxCell id="193" value="Start" style="strokeWidth=2;html=1;shape=mxgraph.flowchart.start_1;whiteSpace=wrap;" parent="1" vertex="1">
                    <mxGeometry x="313.88" y="315" width="100" height="60" as="geometry"/>
                </mxCell>
                <mxCell id="194" value="Stop" style="strokeWidth=2;html=1;shape=mxgraph.flowchart.start_1;whiteSpace=wrap;" parent="1" vertex="1">
                    <mxGeometry x="450" y="407.5" width="100" height="60" as="geometry"/>
                </mxCell>
                <mxCell id="197" value="get speed" style="text;html=1;align=center;verticalAlign=middle;resizable=0;points=[];autosize=1;strokeColor=none;fillColor=none;" parent="1" vertex="1">
                    <mxGeometry x="331.88" y="275" width="75" height="30" as="geometry"/>
                </mxCell>
                <mxCell id="391" style="edgeStyle=none;html=1;fontSize=12;" edge="1" parent="1" source="199" target="194">
                    <mxGeometry relative="1" as="geometry"/>
                </mxCell>
                <mxCell id="199" value="return speed" style="shape=parallelogram;html=1;strokeWidth=2;perimeter=parallelogramPerimeter;whiteSpace=wrap;rounded=1;arcSize=12;size=0.23;fontSize=12;" parent="1" vertex="1">
                    <mxGeometry x="313.88" y="410" width="100" height="60" as="geometry"/>
                </mxCell>
                <mxCell id="388" style="edgeStyle=none;html=1;entryX=0.5;entryY=0;entryDx=0;entryDy=0;fontSize=12;" edge="1" parent="1" source="201" target="207">
                    <mxGeometry relative="1" as="geometry"/>
                </mxCell>
                <mxCell id="201" value="Start" style="strokeWidth=2;html=1;shape=mxgraph.flowchart.start_1;whiteSpace=wrap;" parent="1" vertex="1">
                    <mxGeometry x="331.12" y="85" width="100" height="60" as="geometry"/>
                </mxCell>
                <mxCell id="202" value="Stop" style="strokeWidth=2;html=1;shape=mxgraph.flowchart.start_1;whiteSpace=wrap;" parent="1" vertex="1">
                    <mxGeometry x="465.25" y="175" width="100" height="60" as="geometry"/>
                </mxCell>
                <mxCell id="205" value="get maxSpeed" style="text;html=1;align=center;verticalAlign=middle;resizable=0;points=[];autosize=1;strokeColor=none;fillColor=none;" parent="1" vertex="1">
                    <mxGeometry x="325" y="50" width="100" height="30" as="geometry"/>
                </mxCell>
                <mxCell id="389" style="edgeStyle=none;html=1;fontSize=12;" edge="1" parent="1" source="207" target="202">
                    <mxGeometry relative="1" as="geometry"/>
                </mxCell>
                <mxCell id="207" value="return&lt;br&gt;maxSpeed" style="shape=parallelogram;html=1;strokeWidth=2;perimeter=parallelogramPerimeter;whiteSpace=wrap;rounded=1;arcSize=12;size=0.23;fontSize=12;" parent="1" vertex="1">
                    <mxGeometry x="331.12" y="175" width="100" height="60" as="geometry"/>
                </mxCell>
                <mxCell id="208" value="this.colour =&lt;br&gt;newColour" style="rounded=1;whiteSpace=wrap;html=1;absoluteArcSize=1;arcSize=14;strokeWidth=2;fontSize=12;" parent="1" vertex="1">
                    <mxGeometry x="180" y="835" width="100" height="60" as="geometry"/>
                </mxCell>
                <mxCell id="396" style="edgeStyle=none;html=1;fontSize=12;" edge="1" parent="1" source="210" target="217">
                    <mxGeometry relative="1" as="geometry"/>
                </mxCell>
                <mxCell id="210" value="Start" style="strokeWidth=2;html=1;shape=mxgraph.flowchart.start_1;whiteSpace=wrap;" parent="1" vertex="1">
                    <mxGeometry x="40" y="740" width="100" height="60" as="geometry"/>
                </mxCell>
                <mxCell id="211" value="Stop" style="strokeWidth=2;html=1;shape=mxgraph.flowchart.start_1;whiteSpace=wrap;" parent="1" vertex="1">
                    <mxGeometry x="180" y="740" width="100" height="60" as="geometry"/>
                </mxCell>
                <mxCell id="214" value="set colour" style="text;html=1;align=center;verticalAlign=middle;resizable=0;points=[];autosize=1;strokeColor=none;fillColor=none;" parent="1" vertex="1">
                    <mxGeometry x="35" y="700" width="75" height="30" as="geometry"/>
                </mxCell>
                <mxCell id="215" style="edgeStyle=none;html=1;fontSize=8;exitX=0.5;exitY=0;exitDx=0;exitDy=0;" parent="1" source="208" target="211" edge="1">
                    <mxGeometry relative="1" as="geometry">
                        <mxPoint x="230" y="840" as="sourcePoint"/>
                    </mxGeometry>
                </mxCell>
                <mxCell id="397" style="edgeStyle=none;html=1;entryX=0;entryY=0.5;entryDx=0;entryDy=0;fontSize=12;" edge="1" parent="1" source="217" target="208">
                    <mxGeometry relative="1" as="geometry"/>
                </mxCell>
                <mxCell id="217" value="Get&lt;br&gt;newColour" style="shape=parallelogram;html=1;strokeWidth=2;perimeter=parallelogramPerimeter;whiteSpace=wrap;rounded=1;arcSize=12;size=0.23;fontSize=12;" parent="1" vertex="1">
                    <mxGeometry x="40" y="835" width="100" height="60" as="geometry"/>
                </mxCell>
                <mxCell id="398" style="edgeStyle=none;html=1;fontSize=12;" edge="1" parent="1" source="221" target="228">
                    <mxGeometry relative="1" as="geometry"/>
                </mxCell>
                <mxCell id="221" value="Start" style="strokeWidth=2;html=1;shape=mxgraph.flowchart.start_1;whiteSpace=wrap;" parent="1" vertex="1">
                    <mxGeometry x="377.5" y="655" width="100" height="60" as="geometry"/>
                </mxCell>
                <mxCell id="222" value="Stop" style="strokeWidth=2;html=1;shape=mxgraph.flowchart.start_1;whiteSpace=wrap;" parent="1" vertex="1">
                    <mxGeometry x="377.75" y="935" width="100" height="60" as="geometry"/>
                </mxCell>
                <mxCell id="225" value="set licensePlateNumber" style="text;html=1;align=center;verticalAlign=middle;resizable=0;points=[];autosize=1;strokeColor=none;fillColor=none;" parent="1" vertex="1">
                    <mxGeometry x="358.62" y="615" width="150" height="30" as="geometry"/>
                </mxCell>
                <mxCell id="372" style="edgeStyle=none;html=1;fontSize=12;" parent="1" source="228" target="229" edge="1">
                    <mxGeometry relative="1" as="geometry"/>
                </mxCell>
                <mxCell id="228" value="&lt;font style=&quot;font-size: 12px;&quot;&gt;Get&lt;br style=&quot;&quot;&gt;newPlateNumber&lt;/font&gt;" style="shape=parallelogram;html=1;strokeWidth=2;perimeter=parallelogramPerimeter;whiteSpace=wrap;rounded=1;arcSize=12;size=0.23;fontSize=8;" parent="1" vertex="1">
                    <mxGeometry x="352.75" y="755" width="150" height="55" as="geometry"/>
                </mxCell>
                <mxCell id="373" style="edgeStyle=none;html=1;fontSize=12;" parent="1" source="229" target="222" edge="1">
                    <mxGeometry relative="1" as="geometry"/>
                </mxCell>
                <mxCell id="229" value="&lt;font style=&quot;font-size: 12px;&quot;&gt;this.licensePlateNumber =&lt;br style=&quot;&quot;&gt;newPlateNumber&lt;/font&gt;" style="rounded=1;whiteSpace=wrap;html=1;absoluteArcSize=1;arcSize=14;strokeWidth=2;fontSize=8;" parent="1" vertex="1">
                    <mxGeometry x="344.75" y="847.5" width="166" height="50" as="geometry"/>
                </mxCell>
                <mxCell id="382" style="edgeStyle=none;html=1;entryX=0.5;entryY=0;entryDx=0;entryDy=0;fontSize=12;" edge="1" parent="1" source="233" target="378">
                    <mxGeometry relative="1" as="geometry"/>
                </mxCell>
                <mxCell id="233" value="Start" style="strokeWidth=2;html=1;shape=mxgraph.flowchart.start_1;whiteSpace=wrap;" parent="1" vertex="1">
                    <mxGeometry x="616.75" y="315" width="100" height="60" as="geometry"/>
                </mxCell>
                <mxCell id="234" value="Stop" style="strokeWidth=2;html=1;shape=mxgraph.flowchart.start_1;whiteSpace=wrap;" parent="1" vertex="1">
                    <mxGeometry x="1165" y="525" width="100" height="60" as="geometry"/>
                </mxCell>
                <mxCell id="237" value="get status" style="text;html=1;align=center;verticalAlign=middle;resizable=0;points=[];autosize=1;strokeColor=none;fillColor=none;" parent="1" vertex="1">
                    <mxGeometry x="620" y="270" width="75" height="30" as="geometry"/>
                </mxCell>
                <mxCell id="395" style="edgeStyle=none;html=1;entryX=0;entryY=0.5;entryDx=0;entryDy=0;entryPerimeter=0;fontSize=12;" edge="1" parent="1" source="239" target="234">
                    <mxGeometry relative="1" as="geometry"/>
                </mxCell>
                <mxCell id="239" value="return&lt;br&gt;statusString" style="shape=parallelogram;html=1;strokeWidth=2;perimeter=parallelogramPerimeter;whiteSpace=wrap;rounded=1;arcSize=12;size=0.23;fontSize=12;" parent="1" vertex="1">
                    <mxGeometry x="1015" y="525" width="100" height="60" as="geometry"/>
                </mxCell>
                <mxCell id="383" style="edgeStyle=none;html=1;entryX=0;entryY=0.5;entryDx=0;entryDy=0;fontSize=12;" edge="1" parent="1" source="244" target="245">
                    <mxGeometry relative="1" as="geometry"/>
                </mxCell>
                <mxCell id="244" value="statusString += ` -&amp;gt; MaxSpeed: ${this.maxSpeed}\n`" style="rounded=1;whiteSpace=wrap;html=1;absoluteArcSize=1;arcSize=14;strokeWidth=2;fontSize=11;" parent="1" vertex="1">
                    <mxGeometry x="620" y="520" width="100" height="60" as="geometry"/>
                </mxCell>
                <mxCell id="394" style="edgeStyle=none;html=1;entryX=0.5;entryY=1;entryDx=0;entryDy=0;fontSize=12;" edge="1" parent="1" source="245" target="246">
                    <mxGeometry relative="1" as="geometry"/>
                </mxCell>
                <mxCell id="245" value="statusString += ` -&amp;gt; Number of doors: ${this.doors}\n`" style="rounded=1;whiteSpace=wrap;html=1;absoluteArcSize=1;arcSize=14;strokeWidth=2;fontSize=12;" parent="1" vertex="1">
                    <mxGeometry x="795" y="520" width="125" height="60" as="geometry"/>
                </mxCell>
                <mxCell id="255" style="edgeStyle=none;html=1;fontSize=7;" parent="1" source="246" target="247" edge="1">
                    <mxGeometry relative="1" as="geometry"/>
                </mxCell>
                <mxCell id="246" value="&lt;font style=&quot;font-size: 12px;&quot;&gt;statusString += ` -&amp;gt; License Plate: ${this.licensePlateNumber}\n`&lt;/font&gt;" style="rounded=1;whiteSpace=wrap;html=1;absoluteArcSize=1;arcSize=14;strokeWidth=2;fontSize=7;labelBackgroundColor=default;" parent="1" vertex="1">
                    <mxGeometry x="765" y="400" width="185" height="80" as="geometry"/>
                </mxCell>
                <mxCell id="256" style="edgeStyle=none;html=1;fontSize=7;" parent="1" source="247" target="239" edge="1">
                    <mxGeometry relative="1" as="geometry"/>
                </mxCell>
                <mxCell id="247" value="statusString += ` -&amp;gt; Color: ${this.colour}`" style="rounded=1;whiteSpace=wrap;html=1;absoluteArcSize=1;arcSize=14;strokeWidth=2;fontSize=12;" parent="1" vertex="1">
                    <mxGeometry x="1015" y="410" width="100" height="60" as="geometry"/>
                </mxCell>
                <mxCell id="399" style="edgeStyle=none;html=1;fontSize=12;" edge="1" parent="1" source="258" target="267">
                    <mxGeometry relative="1" as="geometry"/>
                </mxCell>
                <mxCell id="258" value="Start" style="strokeWidth=2;html=1;shape=mxgraph.flowchart.start_1;whiteSpace=wrap;" parent="1" vertex="1">
                    <mxGeometry x="600" y="740" width="100" height="60" as="geometry"/>
                </mxCell>
                <mxCell id="262" value="accelerate" style="text;html=1;align=center;verticalAlign=middle;resizable=0;points=[];autosize=1;strokeColor=none;fillColor=none;" parent="1" vertex="1">
                    <mxGeometry x="610" y="700" width="80" height="30" as="geometry"/>
                </mxCell>
                <mxCell id="270" style="edgeStyle=none;html=1;fontSize=12;" parent="1" source="267" target="269" edge="1">
                    <mxGeometry relative="1" as="geometry"/>
                </mxCell>
                <mxCell id="267" value="Get&lt;br style=&quot;font-size: 12px;&quot;&gt;accelerationPower" style="shape=parallelogram;html=1;strokeWidth=2;perimeter=parallelogramPerimeter;whiteSpace=wrap;rounded=1;arcSize=12;size=0.23;fontSize=12;" parent="1" vertex="1">
                    <mxGeometry x="585" y="830" width="130" height="60" as="geometry"/>
                </mxCell>
                <mxCell id="400" style="edgeStyle=none;html=1;entryX=0;entryY=0.5;entryDx=0;entryDy=0;entryPerimeter=0;fontSize=12;" edge="1" parent="1" source="269" target="303">
                    <mxGeometry relative="1" as="geometry"/>
                </mxCell>
                <mxCell id="269" value="Get&lt;br style=&quot;font-size: 12px;&quot;&gt;accelerationTime" style="shape=parallelogram;html=1;strokeWidth=2;perimeter=parallelogramPerimeter;whiteSpace=wrap;rounded=1;arcSize=12;size=0.23;fontSize=12;" parent="1" vertex="1">
                    <mxGeometry x="579.5" y="932.5" width="135.5" height="65" as="geometry"/>
                </mxCell>
                <mxCell id="402" style="edgeStyle=none;html=1;entryX=0.5;entryY=0;entryDx=0;entryDy=0;fontSize=12;" edge="1" parent="1" source="283" target="293">
                    <mxGeometry relative="1" as="geometry"/>
                </mxCell>
                <mxCell id="283" value="Start" style="strokeWidth=2;html=1;shape=mxgraph.flowchart.start_1;whiteSpace=wrap;" parent="1" vertex="1">
                    <mxGeometry y="1185" width="100" height="60" as="geometry"/>
                </mxCell>
                <mxCell id="287" value="brake" style="text;html=1;align=center;verticalAlign=middle;resizable=0;points=[];autosize=1;strokeColor=none;fillColor=none;" parent="1" vertex="1">
                    <mxGeometry x="7.509999999999998" y="1140" width="50" height="30" as="geometry"/>
                </mxCell>
                <mxCell id="403" style="edgeStyle=none;html=1;fontSize=12;" edge="1" parent="1" source="293" target="295">
                    <mxGeometry relative="1" as="geometry"/>
                </mxCell>
                <mxCell id="293" value="Get&lt;br style=&quot;font-size: 12px;&quot;&gt;brakePower" style="shape=parallelogram;html=1;strokeWidth=2;perimeter=parallelogramPerimeter;whiteSpace=wrap;rounded=1;arcSize=12;size=0.23;fontSize=12;" parent="1" vertex="1">
                    <mxGeometry y="1280" width="100" height="60" as="geometry"/>
                </mxCell>
                <mxCell id="404" style="edgeStyle=none;html=1;entryX=0;entryY=0.5;entryDx=0;entryDy=0;entryPerimeter=0;fontSize=12;" edge="1" parent="1" source="295" target="358">
                    <mxGeometry relative="1" as="geometry"/>
                </mxCell>
                <mxCell id="295" value="Get&lt;br style=&quot;font-size: 12px;&quot;&gt;brakeTime" style="shape=parallelogram;html=1;strokeWidth=2;perimeter=parallelogramPerimeter;whiteSpace=wrap;rounded=1;arcSize=12;size=0.23;fontSize=12;" parent="1" vertex="1">
                    <mxGeometry y="1385" width="100" height="60" as="geometry"/>
                </mxCell>
                <mxCell id="307" style="edgeStyle=none;html=1;fontSize=12;" parent="1" source="303" target="306" edge="1">
                    <mxGeometry relative="1" as="geometry"/>
                </mxCell>
                <mxCell id="317" style="edgeStyle=none;html=1;entryX=0;entryY=0.5;entryDx=0;entryDy=0;fontSize=12;" parent="1" source="303" target="316" edge="1">
                    <mxGeometry relative="1" as="geometry"/>
                </mxCell>
                <mxCell id="303" value="if &lt;br&gt;(accelerationPower &amp;gt; 0 &amp;amp;&amp;amp; accelerationTime &amp;gt; 0)" style="strokeWidth=2;html=1;shape=mxgraph.flowchart.decision;whiteSpace=wrap;fontSize=12;" parent="1" vertex="1">
                    <mxGeometry x="785" y="885" width="180" height="160" as="geometry"/>
                </mxCell>
                <mxCell id="314" style="edgeStyle=none;html=1;entryX=0;entryY=0.5;entryDx=0;entryDy=0;entryPerimeter=0;fontSize=12;" parent="1" source="306" target="309" edge="1">
                    <mxGeometry relative="1" as="geometry"/>
                </mxCell>
                <mxCell id="306" value="this.speed = (accelerationPower * accelerationTime) + this.speed" style="rounded=1;whiteSpace=wrap;html=1;absoluteArcSize=1;arcSize=14;strokeWidth=2;fontSize=12;" parent="1" vertex="1">
                    <mxGeometry x="792.25" y="760" width="157.75" height="65" as="geometry"/>
                </mxCell>
                <mxCell id="308" value="Yes" style="text;html=1;align=center;verticalAlign=middle;resizable=0;points=[];autosize=1;strokeColor=none;fillColor=none;fontSize=12;" parent="1" vertex="1">
                    <mxGeometry x="890" y="850" width="40" height="30" as="geometry"/>
                </mxCell>
                <mxCell id="315" style="edgeStyle=none;html=1;entryX=0;entryY=0.5;entryDx=0;entryDy=0;fontSize=12;" parent="1" source="309" target="312" edge="1">
                    <mxGeometry relative="1" as="geometry"/>
                </mxCell>
                <mxCell id="309" value="if &lt;br&gt;&amp;nbsp;(this.speed &amp;gt; this.maxSpeed)" style="strokeWidth=2;html=1;shape=mxgraph.flowchart.decision;whiteSpace=wrap;fontSize=12;" parent="1" vertex="1">
                    <mxGeometry x="1025" y="727.5" width="140" height="130" as="geometry"/>
                </mxCell>
                <mxCell id="320" style="edgeStyle=none;html=1;entryX=0.5;entryY=0;entryDx=0;entryDy=0;entryPerimeter=0;fontSize=12;" parent="1" source="312" target="319" edge="1">
                    <mxGeometry relative="1" as="geometry"/>
                </mxCell>
                <mxCell id="312" value="this.speed = this.maxSpeed" style="rounded=1;whiteSpace=wrap;html=1;absoluteArcSize=1;arcSize=14;strokeWidth=2;fontSize=12;" parent="1" vertex="1">
                    <mxGeometry x="1293.88" y="767.5" width="127.75" height="50" as="geometry"/>
                </mxCell>
                <mxCell id="321" style="edgeStyle=none;html=1;fontSize=12;entryX=0;entryY=0.5;entryDx=0;entryDy=0;entryPerimeter=0;" parent="1" source="316" target="319" edge="1">
                    <mxGeometry relative="1" as="geometry">
                        <mxPoint x="1265" y="920" as="targetPoint"/>
                    </mxGeometry>
                </mxCell>
                <mxCell id="316" value="Print &quot;Acceleration power and time &lt;br&gt;must be positive numbers.&quot;" style="shape=parallelogram;html=1;strokeWidth=2;perimeter=parallelogramPerimeter;whiteSpace=wrap;rounded=1;arcSize=12;size=0.23;fontSize=12;" parent="1" vertex="1">
                    <mxGeometry x="1022.5" y="917.5" width="254" height="95" as="geometry"/>
                </mxCell>
                <mxCell id="318" value="Yes" style="text;html=1;align=center;verticalAlign=middle;resizable=0;points=[];autosize=1;strokeColor=none;fillColor=none;fontSize=12;" parent="1" vertex="1">
                    <mxGeometry x="1185" y="755" width="40" height="30" as="geometry"/>
                </mxCell>
                <mxCell id="319" value="Stop" style="strokeWidth=2;html=1;shape=mxgraph.flowchart.start_1;whiteSpace=wrap;" parent="1" vertex="1">
                    <mxGeometry x="1307.75" y="932.5" width="100" height="60" as="geometry"/>
                </mxCell>
                <mxCell id="356" style="edgeStyle=none;html=1;fontSize=12;" parent="1" source="358" target="360" edge="1">
                    <mxGeometry relative="1" as="geometry"/>
                </mxCell>
                <mxCell id="357" style="edgeStyle=none;html=1;entryX=0;entryY=0.5;entryDx=0;entryDy=0;fontSize=12;" parent="1" source="358" target="367" edge="1">
                    <mxGeometry relative="1" as="geometry"/>
                </mxCell>
                <mxCell id="358" value="if &lt;br&gt;(brakePower &amp;gt; 0 &lt;br&gt;&amp;amp;&amp;amp; brakeTime &amp;gt; 0)" style="strokeWidth=2;html=1;shape=mxgraph.flowchart.decision;whiteSpace=wrap;fontSize=12;" parent="1" vertex="1">
                    <mxGeometry x="145.01" y="1335" width="180" height="160" as="geometry"/>
                </mxCell>
                <mxCell id="359" style="edgeStyle=none;html=1;entryX=0;entryY=0.5;entryDx=0;entryDy=0;entryPerimeter=0;fontSize=12;" parent="1" source="360" target="363" edge="1">
                    <mxGeometry relative="1" as="geometry"/>
                </mxCell>
                <mxCell id="360" value="this.speed = this.speed - (brakePower * brakeTime)" style="rounded=1;whiteSpace=wrap;html=1;absoluteArcSize=1;arcSize=14;strokeWidth=2;fontSize=12;" parent="1" vertex="1">
                    <mxGeometry x="156.13" y="1190" width="157.75" height="65" as="geometry"/>
                </mxCell>
                <mxCell id="361" value="Yes" style="text;html=1;align=center;verticalAlign=middle;resizable=0;points=[];autosize=1;strokeColor=none;fillColor=none;fontSize=12;" parent="1" vertex="1">
                    <mxGeometry x="245" y="1280" width="40" height="30" as="geometry"/>
                </mxCell>
                <mxCell id="362" style="edgeStyle=none;html=1;entryX=0;entryY=0.5;entryDx=0;entryDy=0;fontSize=12;" parent="1" source="363" target="365" edge="1">
                    <mxGeometry relative="1" as="geometry"/>
                </mxCell>
                <mxCell id="363" value="if &lt;br&gt;&amp;nbsp;(this.speed &amp;lt; 0)" style="strokeWidth=2;html=1;shape=mxgraph.flowchart.decision;whiteSpace=wrap;fontSize=12;" parent="1" vertex="1">
                    <mxGeometry x="400" y="1157.5" width="140" height="130" as="geometry"/>
                </mxCell>
                <mxCell id="364" style="edgeStyle=none;html=1;entryX=0.5;entryY=0;entryDx=0;entryDy=0;entryPerimeter=0;fontSize=12;" parent="1" source="365" target="369" edge="1">
                    <mxGeometry relative="1" as="geometry"/>
                </mxCell>
                <mxCell id="365" value="this.speed = 0" style="rounded=1;whiteSpace=wrap;html=1;absoluteArcSize=1;arcSize=14;strokeWidth=2;fontSize=12;" parent="1" vertex="1">
                    <mxGeometry x="641.13" y="1200" width="127.75" height="50" as="geometry"/>
                </mxCell>
                <mxCell id="366" style="edgeStyle=none;html=1;fontSize=12;entryX=0;entryY=0.5;entryDx=0;entryDy=0;entryPerimeter=0;" parent="1" source="367" target="369" edge="1">
                    <mxGeometry relative="1" as="geometry">
                        <mxPoint x="605.25" y="1355" as="targetPoint"/>
                    </mxGeometry>
                </mxCell>
                <mxCell id="367" value="Print &quot;Brake power and&lt;br&gt;&amp;nbsp;time must be positive numbers.&quot;" style="shape=parallelogram;html=1;strokeWidth=2;perimeter=parallelogramPerimeter;whiteSpace=wrap;rounded=1;arcSize=12;size=0.23;fontSize=12;" parent="1" vertex="1">
                    <mxGeometry x="362.75" y="1367.5" width="254" height="95" as="geometry"/>
                </mxCell>
                <mxCell id="368" value="Yes" style="text;html=1;align=center;verticalAlign=middle;resizable=0;points=[];autosize=1;strokeColor=none;fillColor=none;fontSize=12;" parent="1" vertex="1">
                    <mxGeometry x="525.25" y="1190" width="40" height="30" as="geometry"/>
                </mxCell>
                <mxCell id="369" value="Stop" style="strokeWidth=2;html=1;shape=mxgraph.flowchart.start_1;whiteSpace=wrap;" parent="1" vertex="1">
                    <mxGeometry x="655.01" y="1385" width="100" height="60" as="geometry"/>
                </mxCell>
                <mxCell id="370" value="No" style="text;html=1;align=center;verticalAlign=middle;resizable=0;points=[];autosize=1;strokeColor=none;fillColor=none;fontSize=12;" parent="1" vertex="1">
                    <mxGeometry x="970" y="932.5" width="35" height="30" as="geometry"/>
                </mxCell>
                <mxCell id="371" value="No" style="text;html=1;align=center;verticalAlign=middle;resizable=0;points=[];autosize=1;strokeColor=none;fillColor=none;fontSize=12;" parent="1" vertex="1">
                    <mxGeometry x="335" y="1367.5" width="35" height="30" as="geometry"/>
                </mxCell>
                <mxCell id="381" style="edgeStyle=none;html=1;entryX=0.5;entryY=0;entryDx=0;entryDy=0;fontSize=12;" edge="1" parent="1" source="378" target="244">
                    <mxGeometry relative="1" as="geometry"/>
                </mxCell>
                <mxCell id="378" value="statusString = ` -&amp;gt; Speed: ${this.speed}\n`" style="rounded=1;whiteSpace=wrap;html=1;absoluteArcSize=1;arcSize=14;strokeWidth=2;fontSize=11;" vertex="1" parent="1">
                    <mxGeometry x="615" y="410" width="105" height="55" as="geometry"/>
                </mxCell>
            </root>
        </mxGraphModel>
    </diagram>
</mxfile>